<?xml version="1.0" standalone="no"?>
<!DOCTYPE svg PUBLIC "-//W3C//DTD SVG 20010904//EN"
 "http://www.w3.org/TR/2001/REC-SVG-20010904/DTD/svg10.dtd">
<svg version="1.0" xmlns="http://www.w3.org/2000/svg"
 width="512.000000pt" height="512.000000pt" viewBox="0 0 512.000000 512.000000"
 preserveAspectRatio="xMidYMid meet">
<metadata>
Created by potrace 1.14, written by Peter Selinger 2001-2017
</metadata>
<g transform="translate(0.000000,512.000000) scale(0.100000,-0.100000)"
fill="#000000" stroke="none">
<path d="M1204 4627 c-78 -29 -132 -88 -153 -163 -43 -155 76 -307 238 -303
74 1 145 43 192 111 31 46 34 57 34 122 0 82 -17 125 -72 180 -58 57 -165 81
-239 53z m104 -153 c30 -9 55 -58 47 -94 -15 -66 -110 -79 -141 -18 -19 37
-12 76 19 100 24 19 39 21 75 12z"/>
<path d="M1586 4096 c-14 -19 -32 -41 -40 -49 -8 -8 -35 -45 -59 -83 -68 -105
-111 -217 -124 -320 l-5 -44 81 0 c74 0 81 2 82 20 1 11 2 23 3 28 1 4 6 23
10 42 14 60 74 173 131 245 30 39 58 76 61 82 6 13 -87 113 -105 113 -5 0 -20
-15 -35 -34z"/>
<path d="M633 4064 c-52 -19 -125 -97 -141 -152 -26 -86 -4 -176 59 -240 97
-97 250 -94 341 7 66 74 82 142 53 237 -14 49 -69 111 -123 142 -37 21 -141
24 -189 6z m145 -167 c7 -8 15 -29 18 -49 5 -28 2 -40 -15 -57 -62 -62 -158
-10 -137 74 12 48 97 68 134 32z"/>
<path d="M4800 3753 c-19 -7 -164 -71 -255 -113 -157 -72 -209 -96 -410 -187
-208 -95 -245 -112 -420 -193 -49 -23 -123 -55 -162 -72 -134 -55 -199 -159
-191 -306 3 -75 4 -75 -72 -47 -137 51 -454 56 -735 11 -17 -2 -50 -7 -75 -11
-94 -14 -366 -76 -522 -119 -134 -37 -432 -133 -500 -161 -22 -9 -30 22 -33
114 -3 117 35 234 109 339 20 28 36 54 36 57 0 9 -98 105 -108 105 -8 0 -34
-32 -78 -96 -36 -52 -81 -155 -99 -224 -19 -70 -25 -207 -13 -280 5 -25 9 -53
10 -63 2 -14 -21 -28 -112 -66 -63 -27 -144 -62 -180 -79 l-65 -31 -12 47 c-7
26 -18 76 -23 112 -6 36 -13 76 -16 90 -3 14 -7 104 -10 200 -7 285 -10 310
-36 359 -45 84 -132 135 -233 135 -113 1 -195 -49 -249 -149 -20 -38 -21 -57
-26 -375 l-5 -335 -25 -7 c-14 -3 -45 -12 -70 -18 -55 -15 -124 -80 -137 -130
-18 -65 -5 -200 33 -353 l24 -98 -25 -27 c-35 -37 -90 -129 -105 -175 -18 -57
-6 -133 39 -236 130 -299 362 -532 686 -687 97 -47 260 -107 319 -118 12 -2
53 -11 91 -20 156 -34 421 -49 575 -32 109 13 146 17 160 21 8 2 31 7 50 10
102 17 327 82 414 119 109 47 151 66 231 109 473 255 823 677 940 1137 61 235
54 499 -19 733 l-14 48 36 -22 c26 -15 58 -22 107 -24 78 -4 35 -22 470 190
99 48 230 111 290 140 400 192 634 310 658 333 16 15 39 47 52 72 61 121 -12
306 -143 361 -37 16 -124 23 -152 12z m106 -167 c44 -31 63 -112 36 -153 -4
-7 -134 -74 -287 -149 -154 -75 -380 -185 -503 -245 -123 -60 -225 -109 -228
-109 -2 0 -4 7 -4 15 0 31 -33 112 -61 147 -16 20 -29 39 -29 41 0 3 55 30
123 60 67 30 151 69 187 85 36 17 94 43 130 59 36 16 101 46 145 67 44 20 157
72 250 115 94 44 181 80 195 80 14 1 35 -5 46 -13z m-4244 -493 c33 -29 36
-51 39 -247 1 -103 6 -213 10 -244 5 -31 11 -79 14 -107 9 -71 51 -243 81
-328 53 -148 152 -315 246 -417 51 -56 149 -132 222 -174 l78 -45 -41 -11
c-48 -13 -200 -45 -251 -54 -19 -3 -62 -10 -95 -16 -173 -29 -250 -22 -370 36
-169 81 -285 260 -340 529 -17 86 -24 199 -13 210 4 4 28 11 54 16 76 14 128
51 158 111 l26 52 0 318 c0 348 0 351 59 384 33 18 96 12 123 -13z m3060 -91
c34 -34 46 -94 26 -132 -16 -29 -73 -70 -99 -70 -16 0 -15 3 6 25 47 46 24
119 -40 131 -25 4 -43 1 -60 -10 -32 -21 -38 -20 -30 7 9 27 43 66 70 78 36
16 96 3 127 -29z m-564 -298 c129 -29 182 -59 182 -105 0 -38 -38 -104 -95
-166 -53 -57 -54 -57 -55 -29 -1 93 -76 195 -163 221 -87 26 -147 17 -218 -34
-56 -39 -80 -83 -101 -179 -34 -166 -80 -274 -161 -382 -73 -97 -93 -112 -202
-159 -55 -24 -118 -51 -140 -61 -63 -28 -297 -114 -438 -160 l-128 -42 -67 17
c-193 48 -379 178 -487 340 -43 65 -105 184 -105 203 0 7 30 27 68 44 37 16
92 41 122 55 85 39 181 76 184 72 2 -2 19 -29 39 -59 65 -99 63 -97 94 -69 97
86 96 85 81 100 -22 22 -58 76 -58 86 0 9 283 105 445 152 141 41 379 97 490
116 17 3 41 7 55 10 31 7 144 22 230 31 36 3 66 7 68 9 10 8 314 0 360 -11z
m-147 -255 c23 -27 21 -88 -6 -176 -14 -46 -23 -57 -73 -91 -62 -41 -147 -92
-156 -92 -2 0 8 28 23 63 16 34 36 94 46 132 22 88 23 95 24 121 1 12 12 33
26 48 21 23 32 27 61 23 19 -3 44 -15 55 -28z m384 -231 c-2 -68 -9 -148 -15
-178 -6 -30 -13 -64 -16 -76 -12 -64 -61 -192 -109 -289 -216 -438 -652 -782
-1179 -931 -95 -27 -103 -29 -157 -38 -19 -3 -43 -8 -55 -10 -22 -5 -105 -16
-164 -22 -40 -4 -280 -4 -325 0 -312 29 -598 135 -819 304 -107 83 -280 271
-263 288 3 3 29 1 57 -4 63 -12 297 -12 395 -2 39 5 95 11 125 14 30 3 66 8
80 10 14 3 54 10 90 16 36 6 74 13 85 15 17 3 148 31 180 39 6 1 26 6 45 10
260 58 776 231 1015 340 28 13 70 31 95 42 82 35 344 170 440 226 94 56 278
181 335 228 16 14 56 52 90 85 33 34 63 60 66 58 4 -1 5 -58 4 -125z m-3039
-757 l46 -43 -54 7 c-69 10 -147 40 -171 68 -23 27 -18 72 13 122 l21 35 49
-74 c27 -40 70 -92 96 -115z"/>
<path d="M565 1803 c17 -98 103 -222 214 -307 l56 -44 44 66 44 66 -29 24
c-78 64 -128 122 -152 174 l-27 58 -78 0 -78 0 6 -37z"/>
<path d="M1440 2000 l0 -80 80 0 80 0 0 80 0 80 -80 0 -80 0 0 -80z"/>
<path d="M160 3520 l0 -80 80 0 80 0 0 80 0 80 -80 0 -80 0 0 -80z"/>
<path d="M1040 3440 l0 -80 80 0 80 0 0 80 0 80 -80 0 -80 0 0 -80z"/>
<path d="M960 2720 l0 -80 80 0 80 0 0 80 0 80 -80 0 -80 0 0 -80z"/>
</g>
</svg>
